<svg id="Layer_3" enable-background="new 0 0 64 64" height="512" viewBox="0 0 64 64" width="512" xmlns="http://www.w3.org/2000/svg"><path d="m1 58v2h62v-2h-16-30z"/><path d="m17 46c-2.206 0-4 1.794-4 4s1.794 4 4 4 4-1.794 4-4-1.794-4-4-4zm0 6c-1.103 0-2-.897-2-2s.897-2 2-2 2 .897 2 2-.897 2-2 2z"/><path d="m54.931 51h7.069c.552 0 1-.448 1-1v-23c0-3.86-3.14-7-7-7h-3v-2h6c1.103 0 2-.897 2-2v-2c0-.366-.106-.705-.278-1 .172-.295.278-.634.278-1v-2c0-1.103-.897-2-2-2h-14c-1.103 0-2 .897-2 2v1 1c0 .366.106.705.278 1-.172.295-.278.634-.278 1v2h-2.11c1.3-1.272 2.11-3.042 2.11-5 0-3.86-3.14-7-7-7s-7 3.14-7 7c0 1.958.81 3.728 2.11 5h-4.22c1.3-1.272 2.11-3.042 2.11-5 0-3.86-3.14-7-7-7s-7 3.14-7 7c0 1.958.81 3.728 2.11 5h-1.11v2h4v2h-7.842c-2.902 0-5.536 1.825-6.555 4.542l-4.54 12.107c-.042.112-.063.231-.063.351v13c0 .552.448 1 1 1h7.069c.495 3.94 3.859 7 7.931 7s7.436-3.06 7.931-7h14.139c.495 3.94 3.859 7 7.931 7s7.435-3.06 7.93-7zm6.069-6h-2v-5h2zm-16-35h14v2h-14zm0 4h14v2h-14zm-14-3c0-2.757 2.243-5 5-5s5 2.243 5 5-2.243 5-5 5-5-2.243-5-5zm-14 0c0-2.757 2.243-5 5-5s5 2.243 5 5-2.243 5-5 5-5-2.243-5-5zm5 7h23 6v2h-29zm-19 23h2v2h-2zm0 4h3c.552 0 1-.448 1-1v-4c0-.552-.448-1-1-1h-3v-1.819l4.477-11.937c.727-1.94 2.608-3.244 4.681-3.244h43.842c2.757 0 5 2.243 5 5v11h-3c-.552 0-1 .448-1 1v7c0 .552.448 1 1 1h3v2h-6.069c-.495-3.94-3.859-7-7.931-7s-7.436 3.06-7.931 7h-14.138c-.495-3.94-3.859-7-7.931-7s-7.436 3.06-7.931 7h-6.069zm14 11c-3.309 0-6-2.691-6-6s2.691-6 6-6 6 2.691 6 6-2.691 6-6 6zm30 0c-3.309 0-6-2.691-6-6s2.691-6 6-6 6 2.691 6 6-2.691 6-6 6z"/><path d="m47 46c-2.206 0-4 1.794-4 4s1.794 4 4 4 4-1.794 4-4-1.794-4-4-4zm0 6c-1.103 0-2-.897-2-2s.897-2 2-2 2 .897 2 2-.897 2-2 2z"/><path d="m58 36c.552 0 1-.448 1-1v-8c0-1.654-1.346-3-3-3h-43.512c-1.335 0-2.49.859-2.874 2.138l-2.572 8.575c-.091.303-.033.63.156.884.188.254.486.403.802.403zm-17-2h-8v-8h8zm2-8h8v8h-8zm-12 8h-9v-8h9zm26-7v7h-4v-8h3c.551 0 1 .449 1 1zm-45.47-.287c.128-.426.513-.713.958-.713h7.512v8h-10.656z"/><path d="m19 38h4v2h-4z"/><path d="m31 38h4v2h-4z"/><path d="m22 8c-1.654 0-3 1.346-3 3s1.346 3 3 3 3-1.346 3-3-1.346-3-3-3zm0 4c-.551 0-1-.449-1-1s.449-1 1-1 1 .449 1 1-.449 1-1 1z"/><path d="m36 8c-1.654 0-3 1.346-3 3s1.346 3 3 3 3-1.346 3-3-1.346-3-3-3zm0 4c-.551 0-1-.449-1-1s.449-1 1-1 1 .449 1 1-.449 1-1 1z"/></svg>